<svg xmlns="http://www.w3.org/2000/svg" xmlns:xlink="http://www.w3.org/1999/xlink" width="500" zoomAndPan="magnify" viewBox="0 0 375 374.999991" height="500" preserveAspectRatio="xMidYMid meet" version="1.0"><defs><g/><clipPath id="3953a10337"><path d="M 131 148 L 244 148 L 244 229.3125 L 131 229.3125 Z M 131 148 " clip-rule="nonzero"/></clipPath></defs><rect x="-37.5" width="450" fill="#ffffff" y="-37.499999" height="449.999989" fill-opacity="1"/><rect x="-37.5" width="450" fill="#ffffff" y="-37.499999" height="449.999989" fill-opacity="1"/><path fill="#186e77" d="M 255.953125 135.535156 L 194.683594 81.445312 C 194.195312 81.011719 193.667969 80.625 193.109375 80.285156 C 192.550781 79.949219 191.964844 79.664062 191.351562 79.433594 C 190.738281 79.199219 190.113281 79.023438 189.46875 78.90625 C 188.824219 78.789062 188.175781 78.730469 187.519531 78.730469 C 186.867188 78.730469 186.21875 78.789062 185.574219 78.90625 C 184.929688 79.023438 184.300781 79.199219 183.691406 79.433594 C 183.078125 79.664062 182.492188 79.949219 181.933594 80.285156 C 181.371094 80.625 180.847656 81.011719 180.355469 81.445312 L 158.027344 101.144531 L 158.027344 98.90625 C 158.027344 98.5625 157.996094 98.21875 157.925781 97.878906 C 157.859375 97.542969 157.761719 97.214844 157.628906 96.894531 C 157.496094 96.578125 157.335938 96.273438 157.144531 95.988281 C 156.953125 95.699219 156.734375 95.433594 156.488281 95.191406 C 156.246094 94.945312 155.980469 94.730469 155.695312 94.539062 C 155.40625 94.347656 155.105469 94.183594 154.785156 94.050781 C 154.464844 93.917969 154.136719 93.820312 153.800781 93.753906 C 153.460938 93.6875 153.121094 93.652344 152.773438 93.652344 L 139.71875 93.652344 C 139.375 93.652344 139.035156 93.6875 138.695312 93.753906 C 138.355469 93.820312 138.027344 93.917969 137.710938 94.050781 C 137.390625 94.183594 137.089844 94.347656 136.800781 94.539062 C 136.515625 94.730469 136.25 94.945312 136.003906 95.191406 C 135.761719 95.433594 135.542969 95.699219 135.351562 95.988281 C 135.160156 96.273438 135 96.578125 134.867188 96.894531 C 134.734375 97.214844 134.632812 97.542969 134.566406 97.878906 C 134.5 98.21875 134.464844 98.5625 134.464844 98.90625 L 134.464844 121.976562 L 119.105469 135.535156 C 111.625 142.101562 116.296875 154.476562 126.269531 154.476562 L 126.492188 154.476562 C 126.742188 153.65625 127.050781 152.867188 127.425781 152.097656 C 127.800781 151.328125 128.230469 150.597656 128.722656 149.898438 C 129.214844 149.199219 129.757812 148.542969 130.351562 147.933594 C 130.949219 147.320312 131.589844 146.761719 132.273438 146.25 C 132.957031 145.742188 133.679688 145.289062 134.4375 144.894531 C 135.195312 144.503906 135.980469 144.171875 136.789062 143.902344 C 137.601562 143.632812 138.425781 143.429688 139.269531 143.292969 C 140.113281 143.15625 140.960938 143.089844 141.816406 143.089844 L 145.832031 143.089844 C 145.851562 142.390625 145.898438 141.691406 145.984375 140.996094 C 146.066406 140.304688 146.183594 139.613281 146.335938 138.933594 C 146.484375 138.25 146.667969 137.574219 146.882812 136.910156 C 147.101562 136.246094 147.347656 135.589844 147.625 134.949219 C 147.90625 134.308594 148.214844 133.683594 148.554688 133.070312 C 148.894531 132.460938 149.261719 131.867188 149.660156 131.289062 C 150.054688 130.714844 150.480469 130.160156 150.929688 129.625 C 151.382812 129.089844 151.855469 128.578125 152.355469 128.089844 C 152.855469 127.601562 153.378906 127.136719 153.925781 126.699219 C 154.46875 126.261719 155.035156 125.851562 155.621094 125.46875 C 156.207031 125.085938 156.808594 124.730469 157.425781 124.40625 C 158.046875 124.082031 158.679688 123.785156 159.328125 123.523438 C 159.972656 123.257812 160.632812 123.027344 161.304688 122.828125 C 161.972656 122.628906 162.652344 122.460938 163.339844 122.324219 C 164.023438 122.191406 164.714844 122.089844 165.410156 122.023438 C 166.109375 121.957031 166.804688 121.921875 167.503906 121.921875 L 207.5625 121.921875 C 208.261719 121.921875 208.960938 121.957031 209.65625 122.023438 C 210.351562 122.089844 211.042969 122.191406 211.730469 122.324219 C 212.414062 122.460938 213.09375 122.628906 213.765625 122.828125 C 214.433594 123.027344 215.09375 123.257812 215.742188 123.523438 C 216.390625 123.785156 217.023438 124.082031 217.640625 124.40625 C 218.261719 124.730469 218.863281 125.085938 219.449219 125.46875 C 220.03125 125.851562 220.597656 126.261719 221.140625 126.699219 C 221.6875 127.136719 222.210938 127.601562 222.710938 128.089844 C 223.210938 128.578125 223.6875 129.089844 224.136719 129.625 C 224.589844 130.160156 225.011719 130.714844 225.410156 131.289062 C 225.804688 131.867188 226.175781 132.460938 226.515625 133.070312 C 226.851562 133.683594 227.164062 134.308594 227.441406 134.949219 C 227.71875 135.589844 227.96875 136.246094 228.183594 136.910156 C 228.398438 137.574219 228.582031 138.25 228.734375 138.933594 C 228.882812 139.613281 229 140.304688 229.082031 140.996094 C 229.167969 141.691406 229.21875 142.390625 229.234375 143.089844 L 233.285156 143.089844 C 234.140625 143.089844 234.988281 143.15625 235.828125 143.292969 C 236.671875 143.429688 237.496094 143.632812 238.308594 143.898438 C 239.117188 144.167969 239.902344 144.496094 240.660156 144.890625 C 241.414062 145.285156 242.136719 145.734375 242.824219 146.242188 C 243.507812 146.75 244.148438 147.3125 244.742188 147.921875 C 245.339844 148.53125 245.882812 149.1875 246.375 149.882812 C 246.867188 150.582031 247.296875 151.3125 247.671875 152.082031 C 248.046875 152.847656 248.359375 153.640625 248.605469 154.457031 L 248.796875 154.457031 C 258.746094 154.476562 263.414062 142.136719 255.953125 135.535156 Z M 255.953125 135.535156 " fill-opacity="1" fill-rule="nonzero"/><path fill="#186e77" d="M 164.015625 159.113281 L 164.015625 181.636719 C 164.015625 181.957031 164.046875 182.273438 164.109375 182.589844 C 164.171875 182.902344 164.265625 183.207031 164.390625 183.503906 C 164.511719 183.800781 164.660156 184.082031 164.839844 184.347656 C 165.015625 184.613281 165.21875 184.863281 165.445312 185.089844 C 165.671875 185.316406 165.917969 185.519531 166.1875 185.695312 C 166.453125 185.875 166.734375 186.023438 167.027344 186.148438 C 167.324219 186.269531 167.628906 186.363281 167.945312 186.425781 C 168.257812 186.488281 168.578125 186.523438 168.898438 186.523438 L 206.132812 186.523438 C 206.453125 186.523438 206.769531 186.488281 207.085938 186.425781 C 207.398438 186.363281 207.703125 186.269531 208 186.148438 C 208.296875 186.023438 208.578125 185.875 208.84375 185.695312 C 209.109375 185.519531 209.359375 185.316406 209.585938 185.089844 C 209.8125 184.863281 210.011719 184.617188 210.191406 184.347656 C 210.371094 184.082031 210.519531 183.800781 210.644531 183.503906 C 210.765625 183.207031 210.859375 182.902344 210.921875 182.589844 C 210.984375 182.273438 211.015625 181.957031 211.015625 181.636719 L 211.015625 159.113281 C 211.019531 158.246094 211.089844 157.386719 211.230469 156.53125 C 211.371094 155.675781 211.578125 154.835938 211.855469 154.015625 C 212.132812 153.195312 212.472656 152.402344 212.878906 151.636719 C 213.285156 150.871094 213.746094 150.144531 214.269531 149.453125 C 214.792969 148.761719 215.367188 148.117188 215.996094 147.519531 C 216.625 146.925781 217.292969 146.382812 218.011719 145.894531 C 218.726562 145.40625 219.476562 144.976562 220.257812 144.609375 C 221.042969 144.242188 221.851562 143.941406 222.6875 143.707031 L 222.6875 143.601562 C 222.6875 142.605469 222.589844 141.621094 222.394531 140.648438 C 222.203125 139.671875 221.914062 138.726562 221.535156 137.808594 C 221.15625 136.890625 220.691406 136.015625 220.136719 135.191406 C 219.585938 134.363281 218.957031 133.597656 218.257812 132.894531 C 217.554688 132.191406 216.789062 131.5625 215.964844 131.011719 C 215.136719 130.457031 214.265625 129.992188 213.347656 129.609375 C 212.429688 129.226562 211.484375 128.941406 210.507812 128.746094 C 209.535156 128.550781 208.550781 128.453125 207.554688 128.449219 L 167.5 128.449219 C 166.503906 128.449219 165.515625 128.546875 164.539062 128.738281 C 163.5625 128.933594 162.617188 129.21875 161.695312 129.601562 C 160.777344 129.980469 159.902344 130.445312 159.074219 131 C 158.246094 131.550781 157.480469 132.179688 156.777344 132.882812 C 156.074219 133.585938 155.445312 134.351562 154.890625 135.179688 C 154.335938 136.007812 153.871094 136.878906 153.488281 137.800781 C 153.109375 138.71875 152.820312 139.667969 152.625 140.644531 C 152.433594 141.621094 152.335938 142.605469 152.335938 143.601562 L 152.335938 143.699219 C 153.167969 143.933594 153.980469 144.234375 154.765625 144.601562 C 155.550781 144.96875 156.300781 145.394531 157.019531 145.882812 C 157.734375 146.371094 158.40625 146.914062 159.035156 147.511719 C 159.664062 148.109375 160.238281 148.753906 160.761719 149.445312 C 161.285156 150.136719 161.75 150.863281 162.15625 151.628906 C 162.5625 152.398438 162.902344 153.191406 163.179688 154.011719 C 163.457031 154.832031 163.664062 155.671875 163.804688 156.527344 C 163.945312 157.382812 164.015625 158.246094 164.015625 159.113281 Z M 164.015625 159.113281 " fill-opacity="1" fill-rule="nonzero"/><g clip-path="url(#3953a10337)"><path fill="#186e77" d="M 233.257812 148.894531 L 227.058594 148.894531 C 226.390625 148.894531 225.726562 148.957031 225.066406 149.089844 C 224.410156 149.21875 223.769531 149.414062 223.148438 149.671875 C 222.53125 149.929688 221.941406 150.242188 221.382812 150.617188 C 220.824219 150.988281 220.308594 151.410156 219.835938 151.886719 C 219.359375 152.359375 218.9375 152.875 218.5625 153.433594 C 218.191406 153.992188 217.875 154.582031 217.621094 155.199219 C 217.363281 155.820312 217.167969 156.460938 217.039062 157.117188 C 216.90625 157.777344 216.84375 158.441406 216.84375 159.113281 L 216.84375 181.636719 C 216.84375 182.339844 216.777344 183.035156 216.640625 183.726562 C 216.507812 184.414062 216.304688 185.085938 216.039062 185.734375 C 215.769531 186.382812 215.441406 187 215.050781 187.585938 C 214.660156 188.171875 214.21875 188.710938 213.722656 189.210938 C 213.222656 189.707031 212.683594 190.152344 212.097656 190.542969 C 211.515625 190.933594 210.898438 191.261719 210.25 191.53125 C 209.597656 191.800781 208.929688 192 208.238281 192.136719 C 207.550781 192.273438 206.855469 192.339844 206.152344 192.339844 L 168.917969 192.339844 C 168.214844 192.339844 167.519531 192.273438 166.832031 192.132812 C 166.140625 191.996094 165.472656 191.792969 164.824219 191.523438 C 164.175781 191.253906 163.5625 190.925781 162.976562 190.535156 C 162.394531 190.144531 161.855469 189.699219 161.359375 189.203125 C 160.863281 188.707031 160.421875 188.164062 160.03125 187.582031 C 159.644531 186.996094 159.316406 186.378906 159.046875 185.730469 C 158.78125 185.082031 158.578125 184.410156 158.445312 183.722656 C 158.308594 183.035156 158.242188 182.339844 158.246094 181.636719 L 158.246094 159.113281 C 158.246094 158.441406 158.179688 157.777344 158.050781 157.117188 C 157.917969 156.460938 157.722656 155.820312 157.46875 155.199219 C 157.210938 154.582031 156.894531 153.992188 156.523438 153.433594 C 156.148438 152.875 155.726562 152.359375 155.253906 151.886719 C 154.777344 151.410156 154.261719 150.988281 153.703125 150.617188 C 153.144531 150.242188 152.558594 149.929688 151.9375 149.671875 C 151.316406 149.414062 150.679688 149.21875 150.019531 149.089844 C 149.363281 148.957031 148.699219 148.894531 148.027344 148.894531 L 141.816406 148.894531 C 141.144531 148.894531 140.480469 148.957031 139.820312 149.089844 C 139.164062 149.21875 138.523438 149.414062 137.90625 149.671875 C 137.285156 149.929688 136.695312 150.242188 136.136719 150.617188 C 135.578125 150.988281 135.0625 151.410156 134.589844 151.886719 C 134.113281 152.359375 133.691406 152.875 133.320312 153.433594 C 132.945312 153.992188 132.632812 154.582031 132.375 155.199219 C 132.117188 155.820312 131.921875 156.460938 131.792969 157.117188 C 131.660156 157.777344 131.597656 158.441406 131.597656 159.113281 L 131.597656 191.34375 C 131.597656 192.753906 131.710938 194.152344 131.941406 195.542969 C 132.171875 196.9375 132.515625 198.300781 132.972656 199.632812 C 133.425781 200.96875 133.988281 202.257812 134.652344 203.5 C 135.320312 204.742188 136.085938 205.921875 136.949219 207.039062 C 137.808594 208.15625 138.753906 209.195312 139.789062 210.15625 C 140.820312 211.117188 141.925781 211.984375 143.101562 212.765625 C 144.277344 213.542969 145.507812 214.222656 146.792969 214.796875 C 148.082031 215.375 149.40625 215.839844 150.773438 216.199219 L 148.652344 222.546875 C 148.546875 222.859375 148.476562 223.175781 148.4375 223.5 C 148.394531 223.820312 148.386719 224.148438 148.410156 224.472656 C 148.433594 224.796875 148.488281 225.117188 148.574219 225.433594 C 148.660156 225.746094 148.773438 226.050781 148.917969 226.34375 C 149.066406 226.636719 149.238281 226.910156 149.4375 227.167969 C 149.636719 227.425781 149.859375 227.664062 150.101562 227.878906 C 150.347656 228.09375 150.613281 228.28125 150.894531 228.445312 C 151.179688 228.605469 151.472656 228.742188 151.785156 228.847656 C 152.09375 228.953125 152.414062 229.023438 152.738281 229.066406 C 153.066406 229.109375 153.390625 229.121094 153.71875 229.097656 C 154.046875 229.074219 154.371094 229.019531 154.6875 228.933594 C 155.003906 228.847656 155.308594 228.730469 155.601562 228.585938 C 155.898438 228.4375 156.175781 228.261719 156.433594 228.0625 C 156.691406 227.859375 156.929688 227.632812 157.144531 227.386719 C 157.359375 227.136719 157.546875 226.871094 157.710938 226.585938 C 157.871094 226.296875 158.003906 226 158.105469 225.6875 L 161.015625 217.03125 L 214.109375 217.03125 L 217.011719 225.6875 C 217.117188 225.996094 217.253906 226.292969 217.414062 226.574219 C 217.578125 226.859375 217.769531 227.121094 217.984375 227.367188 C 218.199219 227.613281 218.433594 227.835938 218.695312 228.035156 C 218.953125 228.234375 219.226562 228.40625 219.519531 228.550781 C 219.8125 228.695312 220.117188 228.808594 220.433594 228.894531 C 220.746094 228.980469 221.066406 229.035156 221.394531 229.058594 C 221.71875 229.082031 222.042969 229.070312 222.367188 229.03125 C 222.691406 228.988281 223.007812 228.917969 223.316406 228.8125 C 223.621094 228.707031 223.914062 228.570312 224.191406 228.40625 C 224.472656 228.242188 224.730469 228.054688 224.972656 227.839844 C 225.214844 227.625 225.433594 227.386719 225.628906 227.132812 C 225.828125 226.875 225.996094 226.601562 226.140625 226.308594 C 226.28125 226.019531 226.394531 225.71875 226.480469 225.40625 C 226.5625 225.09375 226.617188 224.777344 226.640625 224.457031 C 226.664062 224.132812 226.65625 223.8125 226.613281 223.492188 C 226.574219 223.167969 226.503906 222.855469 226.402344 222.546875 L 224.277344 216.230469 C 225.644531 215.875 226.972656 215.40625 228.261719 214.832031 C 229.550781 214.253906 230.785156 213.578125 231.960938 212.796875 C 233.140625 212.019531 234.246094 211.148438 235.28125 210.1875 C 236.316406 209.222656 237.265625 208.183594 238.125 207.066406 C 238.988281 205.945312 239.753906 204.765625 240.421875 203.519531 C 241.089844 202.277344 241.652344 200.984375 242.109375 199.648438 C 242.5625 198.3125 242.90625 196.945312 243.136719 195.550781 C 243.363281 194.15625 243.480469 192.753906 243.476562 191.34375 L 243.476562 159.113281 C 243.476562 158.441406 243.414062 157.777344 243.28125 157.117188 C 243.152344 156.460938 242.957031 155.820312 242.699219 155.199219 C 242.441406 154.582031 242.128906 153.992188 241.753906 153.433594 C 241.382812 152.875 240.960938 152.359375 240.484375 151.886719 C 240.011719 151.410156 239.496094 150.988281 238.9375 150.617188 C 238.378906 150.242188 237.789062 149.929688 237.171875 149.671875 C 236.550781 149.414062 235.910156 149.21875 235.253906 149.089844 C 234.59375 148.957031 233.929688 148.894531 233.257812 148.894531 Z M 233.257812 148.894531 " fill-opacity="1" fill-rule="nonzero"/></g><g fill="#186e77" fill-opacity="1"><g transform="translate(94.482801, 272.723762)"><g><path d="M 12.6875 -29.28125 C 14.25 -29.28125 15.769531 -29.050781 17.25 -28.59375 C 18.738281 -28.144531 19.84375 -27.703125 20.5625 -27.265625 L 21.609375 -26.5625 L 18.96875 -21.328125 C 18.757812 -21.472656 18.46875 -21.65625 18.09375 -21.875 C 17.71875 -22.09375 17.019531 -22.390625 16 -22.765625 C 14.976562 -23.140625 14.023438 -23.328125 13.140625 -23.328125 C 12.046875 -23.328125 11.203125 -23.09375 10.609375 -22.625 C 10.015625 -22.15625 9.71875 -21.523438 9.71875 -20.734375 C 9.71875 -20.347656 9.859375 -19.984375 10.140625 -19.640625 C 10.421875 -19.304688 10.894531 -18.945312 11.5625 -18.5625 C 12.238281 -18.175781 12.832031 -17.867188 13.34375 -17.640625 C 13.863281 -17.410156 14.65625 -17.0625 15.71875 -16.59375 C 17.582031 -15.800781 19.171875 -14.722656 20.484375 -13.359375 C 21.796875 -12.003906 22.453125 -10.46875 22.453125 -8.75 C 22.453125 -7.101562 22.15625 -5.660156 21.5625 -4.421875 C 20.96875 -3.191406 20.148438 -2.226562 19.109375 -1.53125 C 18.078125 -0.832031 16.929688 -0.316406 15.671875 0.015625 C 14.421875 0.347656 13.066406 0.515625 11.609375 0.515625 C 10.347656 0.515625 9.113281 0.382812 7.90625 0.125 C 6.695312 -0.125 5.6875 -0.4375 4.875 -0.8125 C 4.0625 -1.195312 3.328125 -1.578125 2.671875 -1.953125 C 2.023438 -2.328125 1.550781 -2.640625 1.25 -2.890625 L 0.796875 -3.28125 L 4.078125 -8.78125 C 4.359375 -8.550781 4.742188 -8.253906 5.234375 -7.890625 C 5.722656 -7.535156 6.585938 -7.054688 7.828125 -6.453125 C 9.066406 -5.847656 10.164062 -5.546875 11.125 -5.546875 C 13.882812 -5.546875 15.265625 -6.484375 15.265625 -8.359375 C 15.265625 -8.753906 15.164062 -9.117188 14.96875 -9.453125 C 14.769531 -9.796875 14.421875 -10.132812 13.921875 -10.46875 C 13.421875 -10.8125 12.976562 -11.082031 12.59375 -11.28125 C 12.21875 -11.476562 11.59375 -11.78125 10.71875 -12.1875 C 9.84375 -12.59375 9.195312 -12.898438 8.78125 -13.109375 C 7.039062 -13.960938 5.691406 -15.035156 4.734375 -16.328125 C 3.785156 -17.617188 3.3125 -19.007812 3.3125 -20.5 C 3.3125 -23.070312 4.265625 -25.175781 6.171875 -26.8125 C 8.078125 -28.457031 10.25 -29.28125 12.6875 -29.28125 Z M 12.6875 -29.28125 "/></g></g></g><g fill="#186e77" fill-opacity="1"><g transform="translate(117.912187, 272.723762)"><g><path d="M 3.78125 -2.125 C 1.789062 -3.894531 0.796875 -6.160156 0.796875 -8.921875 C 0.796875 -11.691406 1.828125 -13.960938 3.890625 -15.734375 C 5.960938 -17.515625 8.523438 -18.40625 11.578125 -18.40625 C 14.566406 -18.40625 17.085938 -17.507812 19.140625 -15.71875 C 21.203125 -13.925781 22.234375 -11.660156 22.234375 -8.921875 C 22.234375 -6.179688 21.226562 -3.921875 19.21875 -2.140625 C 17.207031 -0.367188 14.660156 0.515625 11.578125 0.515625 C 8.367188 0.515625 5.769531 -0.363281 3.78125 -2.125 Z M 8.5625 -11.953125 C 7.757812 -11.160156 7.359375 -10.148438 7.359375 -8.921875 C 7.359375 -7.691406 7.738281 -6.6875 8.5 -5.90625 C 9.269531 -5.125 10.28125 -4.734375 11.53125 -4.734375 C 12.738281 -4.734375 13.734375 -5.128906 14.515625 -5.921875 C 15.296875 -6.710938 15.6875 -7.710938 15.6875 -8.921875 C 15.6875 -10.148438 15.285156 -11.160156 14.484375 -11.953125 C 13.679688 -12.742188 12.695312 -13.140625 11.53125 -13.140625 C 10.351562 -13.140625 9.363281 -12.742188 8.5625 -11.953125 Z M 8.5625 -11.953125 "/></g></g></g><g fill="#186e77" fill-opacity="1"><g transform="translate(140.958055, 272.723762)"><g><path d="M 3.140625 -17.890625 L 3.140625 -21.6875 C 3.160156 -24.351562 3.785156 -26.488281 5.015625 -28.09375 C 6.253906 -29.695312 7.960938 -30.5 10.140625 -30.5 C 11.066406 -30.5 11.953125 -30.363281 12.796875 -30.09375 C 13.648438 -29.832031 14.265625 -29.5625 14.640625 -29.28125 L 15.234375 -28.90625 L 13.078125 -24.546875 C 12.515625 -24.867188 11.894531 -25.03125 11.21875 -25.03125 C 10.457031 -25.03125 9.945312 -24.765625 9.6875 -24.234375 C 9.4375 -23.710938 9.3125 -22.804688 9.3125 -21.515625 L 9.3125 -17.890625 L 13.421875 -17.890625 L 13.421875 -13.171875 L 9.3125 -13.171875 L 9.3125 0 L 3.140625 0 L 3.140625 -13.171875 L 0.5625 -13.171875 L 0.5625 -17.890625 Z M 3.140625 -17.890625 "/></g></g></g><g fill="#186e77" fill-opacity="1"><g transform="translate(154.032489, 272.723762)"><g><path d="M 3.3125 -2.21875 C 1.632812 -4.039062 0.796875 -6.273438 0.796875 -8.921875 C 0.796875 -11.566406 1.632812 -13.804688 3.3125 -15.640625 C 4.988281 -17.484375 7.113281 -18.40625 9.6875 -18.40625 C 12.0625 -18.40625 14.015625 -17.660156 15.546875 -16.171875 L 15.546875 -17.890625 L 21.71875 -17.890625 L 21.71875 0 L 15.609375 0 L 15.609375 -2.015625 L 15.546875 -2.015625 C 14.015625 -0.328125 12.0625 0.515625 9.6875 0.515625 C 7.113281 0.515625 4.988281 -0.394531 3.3125 -2.21875 Z M 8.5625 -11.953125 C 7.757812 -11.160156 7.359375 -10.148438 7.359375 -8.921875 C 7.359375 -7.691406 7.738281 -6.6875 8.5 -5.90625 C 9.269531 -5.125 10.28125 -4.734375 11.53125 -4.734375 C 12.738281 -4.734375 13.734375 -5.128906 14.515625 -5.921875 C 15.296875 -6.710938 15.6875 -7.710938 15.6875 -8.921875 C 15.6875 -10.148438 15.285156 -11.160156 14.484375 -11.953125 C 13.679688 -12.742188 12.695312 -13.140625 11.53125 -13.140625 C 10.351562 -13.140625 9.363281 -12.742188 8.5625 -11.953125 Z M 8.5625 -11.953125 "/></g></g></g><g fill="#186e77" fill-opacity="1"><g transform="translate(177.845395, 272.723762)"><g><path d="M 17.390625 -5.921875 C 18.390625 -5.921875 19.359375 -6.070312 20.296875 -6.375 C 21.242188 -6.675781 21.9375 -6.96875 22.375 -7.25 L 23.046875 -7.703125 L 25.828125 -2.125 C 25.734375 -2.050781 25.601562 -1.957031 25.4375 -1.84375 C 25.28125 -1.726562 24.90625 -1.515625 24.3125 -1.203125 C 23.71875 -0.890625 23.082031 -0.613281 22.40625 -0.375 C 21.738281 -0.144531 20.859375 0.0546875 19.765625 0.234375 C 18.671875 0.421875 17.546875 0.515625 16.390625 0.515625 C 13.710938 0.515625 11.175781 -0.140625 8.78125 -1.453125 C 6.382812 -2.765625 4.453125 -4.566406 2.984375 -6.859375 C 1.523438 -9.160156 0.796875 -11.648438 0.796875 -14.328125 C 0.796875 -16.347656 1.222656 -18.285156 2.078125 -20.140625 C 2.941406 -22.003906 4.085938 -23.597656 5.515625 -24.921875 C 6.953125 -26.242188 8.625 -27.300781 10.53125 -28.09375 C 12.4375 -28.882812 14.390625 -29.28125 16.390625 -29.28125 C 18.242188 -29.28125 19.953125 -29.054688 21.515625 -28.609375 C 23.085938 -28.171875 24.203125 -27.734375 24.859375 -27.296875 L 25.828125 -26.625 L 23.046875 -21.0625 C 22.878906 -21.195312 22.632812 -21.363281 22.3125 -21.5625 C 21.988281 -21.757812 21.335938 -22.019531 20.359375 -22.34375 C 19.378906 -22.664062 18.390625 -22.828125 17.390625 -22.828125 C 15.816406 -22.828125 14.398438 -22.570312 13.140625 -22.0625 C 11.890625 -21.550781 10.894531 -20.878906 10.15625 -20.046875 C 9.425781 -19.210938 8.867188 -18.3125 8.484375 -17.34375 C 8.097656 -16.375 7.90625 -15.390625 7.90625 -14.390625 C 7.90625 -12.210938 8.722656 -10.253906 10.359375 -8.515625 C 12.003906 -6.785156 14.347656 -5.921875 17.390625 -5.921875 Z M 17.390625 -5.921875 "/></g></g></g><g fill="#186e77" fill-opacity="1"><g transform="translate(204.098854, 272.723762)"><g><path d="M 2.6875 -27.84375 C 3.40625 -28.570312 4.265625 -28.9375 5.265625 -28.9375 C 6.265625 -28.9375 7.125 -28.570312 7.84375 -27.84375 C 8.5625 -27.125 8.921875 -26.265625 8.921875 -25.265625 C 8.921875 -24.273438 8.5625 -23.414062 7.84375 -22.6875 C 7.125 -21.96875 6.265625 -21.609375 5.265625 -21.609375 C 4.265625 -21.609375 3.40625 -21.96875 2.6875 -22.6875 C 1.96875 -23.414062 1.609375 -24.273438 1.609375 -25.265625 C 1.609375 -26.265625 1.96875 -27.125 2.6875 -27.84375 Z M 2.09375 -17.890625 L 2.09375 0 L 8.265625 0 L 8.265625 -17.890625 Z M 2.09375 -17.890625 "/></g></g></g><g fill="#186e77" fill-opacity="1"><g transform="translate(214.628131, 272.723762)"><g><path d="M 2.09375 0 L 2.09375 -17.890625 L 8.265625 -17.890625 L 8.265625 -15.296875 L 8.328125 -15.296875 C 8.378906 -15.390625 8.457031 -15.503906 8.5625 -15.640625 C 8.664062 -15.785156 8.890625 -16.03125 9.234375 -16.375 C 9.585938 -16.726562 9.960938 -17.046875 10.359375 -17.328125 C 10.753906 -17.609375 11.265625 -17.859375 11.890625 -18.078125 C 12.515625 -18.296875 13.148438 -18.40625 13.796875 -18.40625 C 14.472656 -18.40625 15.132812 -18.3125 15.78125 -18.125 C 16.4375 -17.9375 16.914062 -17.75 17.21875 -17.5625 L 17.703125 -17.296875 L 15.125 -12.0625 C 14.363281 -12.707031 13.296875 -13.03125 11.921875 -13.03125 C 11.179688 -13.03125 10.539062 -12.867188 10 -12.546875 C 9.46875 -12.222656 9.09375 -11.828125 8.875 -11.359375 C 8.65625 -10.898438 8.5 -10.503906 8.40625 -10.171875 C 8.3125 -9.847656 8.265625 -9.59375 8.265625 -9.40625 L 8.265625 0 Z M 2.09375 0 "/></g></g></g><g fill="#186e77" fill-opacity="1"><g transform="translate(231.990982, 272.723762)"><g><path d="M 11.609375 -13.34375 C 10.441406 -13.34375 9.441406 -12.910156 8.609375 -12.046875 C 7.773438 -11.191406 7.359375 -10.160156 7.359375 -8.953125 C 7.359375 -7.722656 7.773438 -6.675781 8.609375 -5.8125 C 9.441406 -4.957031 10.441406 -4.53125 11.609375 -4.53125 C 12.160156 -4.53125 12.6875 -4.597656 13.1875 -4.734375 C 13.6875 -4.878906 14.054688 -5.019531 14.296875 -5.15625 L 14.609375 -5.375 L 16.703125 -1.078125 C 16.535156 -0.960938 16.304688 -0.816406 16.015625 -0.640625 C 15.722656 -0.472656 15.0625 -0.238281 14.03125 0.0625 C 13 0.363281 11.890625 0.515625 10.703125 0.515625 C 8.078125 0.515625 5.769531 -0.40625 3.78125 -2.25 C 1.789062 -4.09375 0.796875 -6.304688 0.796875 -8.890625 C 0.796875 -11.492188 1.789062 -13.726562 3.78125 -15.59375 C 5.769531 -17.46875 8.078125 -18.40625 10.703125 -18.40625 C 11.890625 -18.40625 12.984375 -18.265625 13.984375 -17.984375 C 14.984375 -17.703125 15.691406 -17.425781 16.109375 -17.15625 L 16.703125 -16.734375 L 14.609375 -12.515625 C 13.835938 -13.066406 12.835938 -13.34375 11.609375 -13.34375 Z M 11.609375 -13.34375 "/></g></g></g><g fill="#186e77" fill-opacity="1"><g transform="translate(249.109777, 272.723762)"><g><path d="M 2.09375 0 L 2.09375 -29.984375 L 8.265625 -29.984375 L 8.265625 0 Z M 2.09375 0 "/></g></g></g><g fill="#186e77" fill-opacity="1"><g transform="translate(259.46473, 272.723762)"><g><path d="M 20.1875 -8.09375 L 7.21875 -8.09375 C 7.21875 -6.832031 7.625 -5.898438 8.4375 -5.296875 C 9.25 -4.691406 10.128906 -4.390625 11.078125 -4.390625 C 12.078125 -4.390625 12.867188 -4.519531 13.453125 -4.78125 C 14.035156 -5.050781 14.695312 -5.582031 15.4375 -6.375 L 19.90625 -4.140625 C 18.039062 -1.035156 14.945312 0.515625 10.625 0.515625 C 7.9375 0.515625 5.625 -0.40625 3.6875 -2.25 C 1.757812 -4.09375 0.796875 -6.316406 0.796875 -8.921875 C 0.796875 -11.523438 1.757812 -13.753906 3.6875 -15.609375 C 5.625 -17.472656 7.9375 -18.40625 10.625 -18.40625 C 13.46875 -18.40625 15.773438 -17.582031 17.546875 -15.9375 C 19.328125 -14.300781 20.21875 -11.960938 20.21875 -8.921875 C 20.21875 -8.503906 20.207031 -8.226562 20.1875 -8.09375 Z M 7.390625 -11.5 L 14.1875 -11.5 C 14.050781 -12.425781 13.6875 -13.140625 13.09375 -13.640625 C 12.5 -14.140625 11.738281 -14.390625 10.8125 -14.390625 C 9.78125 -14.390625 8.960938 -14.125 8.359375 -13.59375 C 7.753906 -13.0625 7.429688 -12.363281 7.390625 -11.5 Z M 7.390625 -11.5 "/></g></g></g><g fill="#186e77" fill-opacity="1"><g transform="translate(114.407713, 294.107721)"><g><path d="M 6.78125 -6.5 C 6.78125 -5.625 6.476562 -4.945312 5.875 -4.46875 C 5.28125 -4 4.4375 -3.765625 3.34375 -3.765625 L 1.921875 -3.765625 L 1.921875 0 L 1.296875 0 L 1.296875 -9.125 L 3.53125 -9.125 C 5.695312 -9.125 6.78125 -8.25 6.78125 -6.5 Z M 1.921875 -4.3125 L 3.1875 -4.3125 C 4.207031 -4.3125 4.945312 -4.476562 5.40625 -4.8125 C 5.863281 -5.15625 6.09375 -5.710938 6.09375 -6.484375 C 6.09375 -7.179688 5.875 -7.695312 5.4375 -8.03125 C 5.007812 -8.375 4.34375 -8.546875 3.4375 -8.546875 L 1.921875 -8.546875 Z M 1.921875 -4.3125 "/></g></g></g><g fill="#186e77" fill-opacity="1"><g transform="translate(121.880486, 294.107721)"><g><path d="M 3.8125 -6.921875 C 4.09375 -6.921875 4.398438 -6.890625 4.734375 -6.828125 L 4.609375 -6.234375 C 4.328125 -6.304688 4.035156 -6.34375 3.734375 -6.34375 C 3.148438 -6.34375 2.671875 -6.097656 2.296875 -5.609375 C 1.929688 -5.117188 1.75 -4.5 1.75 -3.75 L 1.75 0 L 1.140625 0 L 1.140625 -6.78125 L 1.65625 -6.78125 L 1.71875 -5.5625 L 1.765625 -5.5625 C 2.046875 -6.0625 2.34375 -6.410156 2.65625 -6.609375 C 2.976562 -6.816406 3.363281 -6.921875 3.8125 -6.921875 Z M 3.8125 -6.921875 "/></g></g></g><g fill="#186e77" fill-opacity="1"><g transform="translate(126.851939, 294.107721)"><g><path d="M 3.875 0.125 C 2.882812 0.125 2.113281 -0.175781 1.5625 -0.78125 C 1.019531 -1.394531 0.75 -2.25 0.75 -3.34375 C 0.75 -4.425781 1.015625 -5.289062 1.546875 -5.9375 C 2.078125 -6.59375 2.789062 -6.921875 3.6875 -6.921875 C 4.488281 -6.921875 5.117188 -6.640625 5.578125 -6.078125 C 6.046875 -5.523438 6.28125 -4.769531 6.28125 -3.8125 L 6.28125 -3.3125 L 1.390625 -3.3125 C 1.398438 -2.375 1.617188 -1.660156 2.046875 -1.171875 C 2.472656 -0.679688 3.082031 -0.4375 3.875 -0.4375 C 4.257812 -0.4375 4.597656 -0.460938 4.890625 -0.515625 C 5.179688 -0.566406 5.554688 -0.6875 6.015625 -0.875 L 6.015625 -0.3125 C 5.628906 -0.144531 5.273438 -0.03125 4.953125 0.03125 C 4.628906 0.09375 4.269531 0.125 3.875 0.125 Z M 3.6875 -6.359375 C 3.039062 -6.359375 2.519531 -6.144531 2.125 -5.71875 C 1.726562 -5.289062 1.492188 -4.671875 1.421875 -3.859375 L 5.625 -3.859375 C 5.625 -4.640625 5.453125 -5.25 5.109375 -5.6875 C 4.765625 -6.132812 4.289062 -6.359375 3.6875 -6.359375 Z M 3.6875 -6.359375 "/></g></g></g><g fill="#186e77" fill-opacity="1"><g transform="translate(133.863122, 294.107721)"><g><path d="M 9.609375 0 L 9.609375 -4.453125 C 9.609375 -5.109375 9.476562 -5.585938 9.21875 -5.890625 C 8.96875 -6.203125 8.570312 -6.359375 8.03125 -6.359375 C 7.34375 -6.359375 6.832031 -6.164062 6.5 -5.78125 C 6.164062 -5.394531 6 -4.789062 6 -3.96875 L 6 0 L 5.359375 0 L 5.359375 -4.640625 C 5.359375 -5.785156 4.835938 -6.359375 3.796875 -6.359375 C 3.085938 -6.359375 2.566406 -6.148438 2.234375 -5.734375 C 1.910156 -5.316406 1.75 -4.65625 1.75 -3.75 L 1.75 0 L 1.140625 0 L 1.140625 -6.78125 L 1.640625 -6.78125 L 1.78125 -5.859375 L 1.8125 -5.859375 C 2 -6.191406 2.265625 -6.453125 2.609375 -6.640625 C 2.960938 -6.828125 3.34375 -6.921875 3.75 -6.921875 C 4.820312 -6.921875 5.507812 -6.515625 5.8125 -5.703125 L 5.84375 -5.703125 C 6.0625 -6.097656 6.359375 -6.398438 6.734375 -6.609375 C 7.109375 -6.816406 7.53125 -6.921875 8 -6.921875 C 8.738281 -6.921875 9.289062 -6.722656 9.65625 -6.328125 C 10.03125 -5.929688 10.21875 -5.300781 10.21875 -4.4375 L 10.21875 0 Z M 9.609375 0 "/></g></g></g><g fill="#186e77" fill-opacity="1"><g transform="translate(145.140897, 294.107721)"><g><path d="M 1.75 0 L 1.140625 0 L 1.140625 -6.78125 L 1.75 -6.78125 Z M 1.046875 -8.671875 C 1.046875 -9.066406 1.175781 -9.265625 1.4375 -9.265625 C 1.570312 -9.265625 1.675781 -9.210938 1.75 -9.109375 C 1.820312 -9.003906 1.859375 -8.859375 1.859375 -8.671875 C 1.859375 -8.484375 1.820312 -8.332031 1.75 -8.21875 C 1.675781 -8.113281 1.570312 -8.0625 1.4375 -8.0625 C 1.175781 -8.0625 1.046875 -8.265625 1.046875 -8.671875 Z M 1.046875 -8.671875 "/></g></g></g><g fill="#186e77" fill-opacity="1"><g transform="translate(148.028955, 294.107721)"><g><path d="M 1.671875 -6.78125 L 1.671875 -2.390625 C 1.671875 -1.703125 1.8125 -1.203125 2.09375 -0.890625 C 2.382812 -0.585938 2.832031 -0.4375 3.4375 -0.4375 C 4.25 -0.4375 4.84375 -0.640625 5.21875 -1.046875 C 5.601562 -1.453125 5.796875 -2.117188 5.796875 -3.046875 L 5.796875 -6.78125 L 6.40625 -6.78125 L 6.40625 0 L 5.875 0 L 5.765625 -0.9375 L 5.734375 -0.9375 C 5.285156 -0.226562 4.5 0.125 3.375 0.125 C 1.832031 0.125 1.0625 -0.703125 1.0625 -2.359375 L 1.0625 -6.78125 Z M 1.671875 -6.78125 "/></g></g></g><g fill="#186e77" fill-opacity="1"><g transform="translate(155.564105, 294.107721)"><g><path d="M 9.609375 0 L 9.609375 -4.453125 C 9.609375 -5.109375 9.476562 -5.585938 9.21875 -5.890625 C 8.96875 -6.203125 8.570312 -6.359375 8.03125 -6.359375 C 7.34375 -6.359375 6.832031 -6.164062 6.5 -5.78125 C 6.164062 -5.394531 6 -4.789062 6 -3.96875 L 6 0 L 5.359375 0 L 5.359375 -4.640625 C 5.359375 -5.785156 4.835938 -6.359375 3.796875 -6.359375 C 3.085938 -6.359375 2.566406 -6.148438 2.234375 -5.734375 C 1.910156 -5.316406 1.75 -4.65625 1.75 -3.75 L 1.75 0 L 1.140625 0 L 1.140625 -6.78125 L 1.640625 -6.78125 L 1.78125 -5.859375 L 1.8125 -5.859375 C 2 -6.191406 2.265625 -6.453125 2.609375 -6.640625 C 2.960938 -6.828125 3.34375 -6.921875 3.75 -6.921875 C 4.820312 -6.921875 5.507812 -6.515625 5.8125 -5.703125 L 5.84375 -5.703125 C 6.0625 -6.097656 6.359375 -6.398438 6.734375 -6.609375 C 7.109375 -6.816406 7.53125 -6.921875 8 -6.921875 C 8.738281 -6.921875 9.289062 -6.722656 9.65625 -6.328125 C 10.03125 -5.929688 10.21875 -5.300781 10.21875 -4.4375 L 10.21875 0 Z M 9.609375 0 "/></g></g></g><g fill="#186e77" fill-opacity="1"><g transform="translate(166.84188, 294.107721)"><g/></g></g><g fill="#186e77" fill-opacity="1"><g transform="translate(170.16034, 294.107721)"><g><path d="M 1.296875 -9.125 L 3.796875 -9.125 C 4.921875 -9.125 5.75 -8.929688 6.28125 -8.546875 C 6.8125 -8.160156 7.078125 -7.582031 7.078125 -6.8125 C 7.078125 -6.28125 6.914062 -5.835938 6.59375 -5.484375 C 6.269531 -5.140625 5.796875 -4.914062 5.171875 -4.8125 L 5.171875 -4.78125 C 5.898438 -4.675781 6.4375 -4.445312 6.78125 -4.09375 C 7.125 -3.738281 7.296875 -3.25 7.296875 -2.625 C 7.296875 -1.78125 7.015625 -1.128906 6.453125 -0.671875 C 5.898438 -0.222656 5.113281 0 4.09375 0 L 1.296875 0 Z M 1.921875 -5.0625 L 3.9375 -5.0625 C 4.789062 -5.0625 5.410156 -5.203125 5.796875 -5.484375 C 6.191406 -5.773438 6.390625 -6.222656 6.390625 -6.828125 C 6.390625 -7.429688 6.171875 -7.867188 5.734375 -8.140625 C 5.296875 -8.421875 4.640625 -8.5625 3.765625 -8.5625 L 1.921875 -8.5625 Z M 1.921875 -4.5 L 1.921875 -0.5625 L 4.078125 -0.5625 C 5.765625 -0.5625 6.609375 -1.25 6.609375 -2.625 C 6.609375 -3.875 5.71875 -4.5 3.9375 -4.5 Z M 1.921875 -4.5 "/></g></g></g><g fill="#186e77" fill-opacity="1"><g transform="translate(178.169556, 294.107721)"><g><path d="M 3.8125 -6.921875 C 4.09375 -6.921875 4.398438 -6.890625 4.734375 -6.828125 L 4.609375 -6.234375 C 4.328125 -6.304688 4.035156 -6.34375 3.734375 -6.34375 C 3.148438 -6.34375 2.671875 -6.097656 2.296875 -5.609375 C 1.929688 -5.117188 1.75 -4.5 1.75 -3.75 L 1.75 0 L 1.140625 0 L 1.140625 -6.78125 L 1.65625 -6.78125 L 1.71875 -5.5625 L 1.765625 -5.5625 C 2.046875 -6.0625 2.34375 -6.410156 2.65625 -6.609375 C 2.976562 -6.816406 3.363281 -6.921875 3.8125 -6.921875 Z M 3.8125 -6.921875 "/></g></g></g><g fill="#186e77" fill-opacity="1"><g transform="translate(183.141009, 294.107721)"><g><path d="M 1.75 0 L 1.140625 0 L 1.140625 -6.78125 L 1.75 -6.78125 Z M 1.046875 -8.671875 C 1.046875 -9.066406 1.175781 -9.265625 1.4375 -9.265625 C 1.570312 -9.265625 1.675781 -9.210938 1.75 -9.109375 C 1.820312 -9.003906 1.859375 -8.859375 1.859375 -8.671875 C 1.859375 -8.484375 1.820312 -8.332031 1.75 -8.21875 C 1.675781 -8.113281 1.570312 -8.0625 1.4375 -8.0625 C 1.175781 -8.0625 1.046875 -8.265625 1.046875 -8.671875 Z M 1.046875 -8.671875 "/></g></g></g><g fill="#186e77" fill-opacity="1"><g transform="translate(186.029067, 294.107721)"><g><path d="M 2.921875 -0.421875 C 3.316406 -0.421875 3.660156 -0.457031 3.953125 -0.53125 L 3.953125 -0.03125 C 3.648438 0.0703125 3.304688 0.125 2.921875 0.125 C 2.316406 0.125 1.867188 -0.0351562 1.578125 -0.359375 C 1.296875 -0.679688 1.15625 -1.179688 1.15625 -1.859375 L 1.15625 -6.25 L 0.15625 -6.25 L 0.15625 -6.609375 L 1.15625 -6.890625 L 1.46875 -8.421875 L 1.796875 -8.421875 L 1.796875 -6.78125 L 3.78125 -6.78125 L 3.78125 -6.25 L 1.796875 -6.25 L 1.796875 -1.953125 C 1.796875 -1.429688 1.882812 -1.046875 2.0625 -0.796875 C 2.25 -0.546875 2.535156 -0.421875 2.921875 -0.421875 Z M 2.921875 -0.421875 "/></g></g></g><g fill="#186e77" fill-opacity="1"><g transform="translate(190.308134, 294.107721)"><g><path d="M 1.75 0 L 1.140625 0 L 1.140625 -6.78125 L 1.75 -6.78125 Z M 1.046875 -8.671875 C 1.046875 -9.066406 1.175781 -9.265625 1.4375 -9.265625 C 1.570312 -9.265625 1.675781 -9.210938 1.75 -9.109375 C 1.820312 -9.003906 1.859375 -8.859375 1.859375 -8.671875 C 1.859375 -8.484375 1.820312 -8.332031 1.75 -8.21875 C 1.675781 -8.113281 1.570312 -8.0625 1.4375 -8.0625 C 1.175781 -8.0625 1.046875 -8.265625 1.046875 -8.671875 Z M 1.046875 -8.671875 "/></g></g></g><g fill="#186e77" fill-opacity="1"><g transform="translate(193.196193, 294.107721)"><g><path d="M 5.34375 -1.765625 C 5.34375 -1.160156 5.109375 -0.691406 4.640625 -0.359375 C 4.179688 -0.0351562 3.53125 0.125 2.6875 0.125 C 1.78125 0.125 1.0625 -0.015625 0.53125 -0.296875 L 0.53125 -0.96875 C 1.207031 -0.625 1.925781 -0.453125 2.6875 -0.453125 C 3.351562 -0.453125 3.859375 -0.5625 4.203125 -0.78125 C 4.554688 -1 4.734375 -1.296875 4.734375 -1.671875 C 4.734375 -2.015625 4.59375 -2.300781 4.3125 -2.53125 C 4.039062 -2.769531 3.585938 -3 2.953125 -3.21875 C 2.273438 -3.46875 1.796875 -3.679688 1.515625 -3.859375 C 1.242188 -4.035156 1.035156 -4.234375 0.890625 -4.453125 C 0.753906 -4.671875 0.6875 -4.941406 0.6875 -5.265625 C 0.6875 -5.773438 0.898438 -6.175781 1.328125 -6.46875 C 1.753906 -6.769531 2.351562 -6.921875 3.125 -6.921875 C 3.851562 -6.921875 4.546875 -6.78125 5.203125 -6.5 L 4.96875 -5.9375 C 4.300781 -6.21875 3.6875 -6.359375 3.125 -6.359375 C 2.570312 -6.359375 2.128906 -6.265625 1.796875 -6.078125 C 1.472656 -5.890625 1.3125 -5.632812 1.3125 -5.3125 C 1.3125 -4.957031 1.4375 -4.675781 1.6875 -4.46875 C 1.945312 -4.257812 2.441406 -4.019531 3.171875 -3.75 C 3.785156 -3.53125 4.226562 -3.332031 4.5 -3.15625 C 4.78125 -2.976562 4.988281 -2.773438 5.125 -2.546875 C 5.269531 -2.328125 5.34375 -2.066406 5.34375 -1.765625 Z M 5.34375 -1.765625 "/></g></g></g><g fill="#186e77" fill-opacity="1"><g transform="translate(199.146966, 294.107721)"><g><path d="M 5.859375 0 L 5.859375 -4.40625 C 5.859375 -5.082031 5.710938 -5.578125 5.421875 -5.890625 C 5.140625 -6.203125 4.695312 -6.359375 4.09375 -6.359375 C 3.289062 -6.359375 2.695312 -6.148438 2.3125 -5.734375 C 1.9375 -5.328125 1.75 -4.664062 1.75 -3.75 L 1.75 0 L 1.140625 0 L 1.140625 -9.703125 L 1.75 -9.703125 L 1.75 -6.625 L 1.71875 -5.75 L 1.765625 -5.75 C 2.015625 -6.15625 2.332031 -6.453125 2.71875 -6.640625 C 3.113281 -6.828125 3.597656 -6.921875 4.171875 -6.921875 C 5.710938 -6.921875 6.484375 -6.09375 6.484375 -4.4375 L 6.484375 0 Z M 5.859375 0 "/></g></g></g><g fill="#186e77" fill-opacity="1"><g transform="translate(206.682116, 294.107721)"><g/></g></g><g fill="#186e77" fill-opacity="1"><g transform="translate(210.000576, 294.107721)"><g><path d="M 3.65625 -6.25 L 2.0625 -6.25 L 2.0625 0 L 1.4375 0 L 1.4375 -6.25 L 0.1875 -6.25 L 0.1875 -6.609375 L 1.4375 -6.84375 L 1.4375 -7.359375 C 1.4375 -8.191406 1.585938 -8.800781 1.890625 -9.1875 C 2.203125 -9.582031 2.707031 -9.78125 3.40625 -9.78125 C 3.78125 -9.78125 4.15625 -9.722656 4.53125 -9.609375 L 4.375 -9.078125 C 4.039062 -9.179688 3.710938 -9.234375 3.390625 -9.234375 C 2.910156 -9.234375 2.566406 -9.085938 2.359375 -8.796875 C 2.160156 -8.515625 2.0625 -8.054688 2.0625 -7.421875 L 2.0625 -6.78125 L 3.65625 -6.78125 Z M 3.65625 -6.25 "/></g></g></g><g fill="#186e77" fill-opacity="1"><g transform="translate(213.830528, 294.107721)"><g><path d="M 1.671875 -6.78125 L 1.671875 -2.390625 C 1.671875 -1.703125 1.8125 -1.203125 2.09375 -0.890625 C 2.382812 -0.585938 2.832031 -0.4375 3.4375 -0.4375 C 4.25 -0.4375 4.84375 -0.640625 5.21875 -1.046875 C 5.601562 -1.453125 5.796875 -2.117188 5.796875 -3.046875 L 5.796875 -6.78125 L 6.40625 -6.78125 L 6.40625 0 L 5.875 0 L 5.765625 -0.9375 L 5.734375 -0.9375 C 5.285156 -0.226562 4.5 0.125 3.375 0.125 C 1.832031 0.125 1.0625 -0.703125 1.0625 -2.359375 L 1.0625 -6.78125 Z M 1.671875 -6.78125 "/></g></g></g><g fill="#186e77" fill-opacity="1"><g transform="translate(221.365679, 294.107721)"><g><path d="M 3.8125 -6.921875 C 4.09375 -6.921875 4.398438 -6.890625 4.734375 -6.828125 L 4.609375 -6.234375 C 4.328125 -6.304688 4.035156 -6.34375 3.734375 -6.34375 C 3.148438 -6.34375 2.671875 -6.097656 2.296875 -5.609375 C 1.929688 -5.117188 1.75 -4.5 1.75 -3.75 L 1.75 0 L 1.140625 0 L 1.140625 -6.78125 L 1.65625 -6.78125 L 1.71875 -5.5625 L 1.765625 -5.5625 C 2.046875 -6.0625 2.34375 -6.410156 2.65625 -6.609375 C 2.976562 -6.816406 3.363281 -6.921875 3.8125 -6.921875 Z M 3.8125 -6.921875 "/></g></g></g><g fill="#186e77" fill-opacity="1"><g transform="translate(226.337131, 294.107721)"><g><path d="M 5.859375 0 L 5.859375 -4.40625 C 5.859375 -5.082031 5.710938 -5.578125 5.421875 -5.890625 C 5.140625 -6.203125 4.695312 -6.359375 4.09375 -6.359375 C 3.289062 -6.359375 2.695312 -6.148438 2.3125 -5.734375 C 1.9375 -5.328125 1.75 -4.664062 1.75 -3.75 L 1.75 0 L 1.140625 0 L 1.140625 -6.78125 L 1.65625 -6.78125 L 1.78125 -5.859375 L 1.8125 -5.859375 C 2.257812 -6.566406 3.046875 -6.921875 4.171875 -6.921875 C 5.710938 -6.921875 6.484375 -6.09375 6.484375 -4.4375 L 6.484375 0 Z M 5.859375 0 "/></g></g></g><g fill="#186e77" fill-opacity="1"><g transform="translate(233.872282, 294.107721)"><g><path d="M 1.75 0 L 1.140625 0 L 1.140625 -6.78125 L 1.75 -6.78125 Z M 1.046875 -8.671875 C 1.046875 -9.066406 1.175781 -9.265625 1.4375 -9.265625 C 1.570312 -9.265625 1.675781 -9.210938 1.75 -9.109375 C 1.820312 -9.003906 1.859375 -8.859375 1.859375 -8.671875 C 1.859375 -8.484375 1.820312 -8.332031 1.75 -8.21875 C 1.675781 -8.113281 1.570312 -8.0625 1.4375 -8.0625 C 1.175781 -8.0625 1.046875 -8.265625 1.046875 -8.671875 Z M 1.046875 -8.671875 "/></g></g></g><g fill="#186e77" fill-opacity="1"><g transform="translate(236.76034, 294.107721)"><g><path d="M 2.921875 -0.421875 C 3.316406 -0.421875 3.660156 -0.457031 3.953125 -0.53125 L 3.953125 -0.03125 C 3.648438 0.0703125 3.304688 0.125 2.921875 0.125 C 2.316406 0.125 1.867188 -0.0351562 1.578125 -0.359375 C 1.296875 -0.679688 1.15625 -1.179688 1.15625 -1.859375 L 1.15625 -6.25 L 0.15625 -6.25 L 0.15625 -6.609375 L 1.15625 -6.890625 L 1.46875 -8.421875 L 1.796875 -8.421875 L 1.796875 -6.78125 L 3.78125 -6.78125 L 3.78125 -6.25 L 1.796875 -6.25 L 1.796875 -1.953125 C 1.796875 -1.429688 1.882812 -1.046875 2.0625 -0.796875 C 2.25 -0.546875 2.535156 -0.421875 2.921875 -0.421875 Z M 2.921875 -0.421875 "/></g></g></g><g fill="#186e77" fill-opacity="1"><g transform="translate(241.039407, 294.107721)"><g><path d="M 1.671875 -6.78125 L 1.671875 -2.390625 C 1.671875 -1.703125 1.8125 -1.203125 2.09375 -0.890625 C 2.382812 -0.585938 2.832031 -0.4375 3.4375 -0.4375 C 4.25 -0.4375 4.84375 -0.640625 5.21875 -1.046875 C 5.601562 -1.453125 5.796875 -2.117188 5.796875 -3.046875 L 5.796875 -6.78125 L 6.40625 -6.78125 L 6.40625 0 L 5.875 0 L 5.765625 -0.9375 L 5.734375 -0.9375 C 5.285156 -0.226562 4.5 0.125 3.375 0.125 C 1.832031 0.125 1.0625 -0.703125 1.0625 -2.359375 L 1.0625 -6.78125 Z M 1.671875 -6.78125 "/></g></g></g><g fill="#186e77" fill-opacity="1"><g transform="translate(248.574558, 294.107721)"><g><path d="M 3.8125 -6.921875 C 4.09375 -6.921875 4.398438 -6.890625 4.734375 -6.828125 L 4.609375 -6.234375 C 4.328125 -6.304688 4.035156 -6.34375 3.734375 -6.34375 C 3.148438 -6.34375 2.671875 -6.097656 2.296875 -5.609375 C 1.929688 -5.117188 1.75 -4.5 1.75 -3.75 L 1.75 0 L 1.140625 0 L 1.140625 -6.78125 L 1.65625 -6.78125 L 1.71875 -5.5625 L 1.765625 -5.5625 C 2.046875 -6.0625 2.34375 -6.410156 2.65625 -6.609375 C 2.976562 -6.816406 3.363281 -6.921875 3.8125 -6.921875 Z M 3.8125 -6.921875 "/></g></g></g><g fill="#186e77" fill-opacity="1"><g transform="translate(253.54601, 294.107721)"><g><path d="M 3.875 0.125 C 2.882812 0.125 2.113281 -0.175781 1.5625 -0.78125 C 1.019531 -1.394531 0.75 -2.25 0.75 -3.34375 C 0.75 -4.425781 1.015625 -5.289062 1.546875 -5.9375 C 2.078125 -6.59375 2.789062 -6.921875 3.6875 -6.921875 C 4.488281 -6.921875 5.117188 -6.640625 5.578125 -6.078125 C 6.046875 -5.523438 6.28125 -4.769531 6.28125 -3.8125 L 6.28125 -3.3125 L 1.390625 -3.3125 C 1.398438 -2.375 1.617188 -1.660156 2.046875 -1.171875 C 2.472656 -0.679688 3.082031 -0.4375 3.875 -0.4375 C 4.257812 -0.4375 4.597656 -0.460938 4.890625 -0.515625 C 5.179688 -0.566406 5.554688 -0.6875 6.015625 -0.875 L 6.015625 -0.3125 C 5.628906 -0.144531 5.273438 -0.03125 4.953125 0.03125 C 4.628906 0.09375 4.269531 0.125 3.875 0.125 Z M 3.6875 -6.359375 C 3.039062 -6.359375 2.519531 -6.144531 2.125 -5.71875 C 1.726562 -5.289062 1.492188 -4.671875 1.421875 -3.859375 L 5.625 -3.859375 C 5.625 -4.640625 5.453125 -5.25 5.109375 -5.6875 C 4.765625 -6.132812 4.289062 -6.359375 3.6875 -6.359375 Z M 3.6875 -6.359375 "/></g></g></g></svg>